<svg width="359" height="289" viewBox="0 0 359 289" fill="none" xmlns="http://www.w3.org/2000/svg">
<path d="M91 148.501V88.4785H99.6545L180.25 142.855L260.846 88.4785H269.5V148.501H180.25H91Z" fill="#D9D9D9" stroke="black" stroke-linejoin="round"/>
<path d="M99.6545 88.4773H91L92 86.5H100.675L99.6545 88.4773Z" fill="#B9B9B9" stroke="black" stroke-linejoin="round"/>
<path d="M260.846 88.4773H269.5L268.503 86.5H259.825L260.846 88.4773Z" fill="#B9B9B9" stroke="black" stroke-linejoin="round"/>
<path d="M100.674 86.5L99.6543 88.4773L180.25 142.853L260.845 88.4773L259.825 86.5L180.25 139.887L100.674 86.5Z" fill="#B9B9B9" stroke="black" stroke-linejoin="round"/>
<circle cx="99" cy="130" r="2.2" fill="white" stroke="black" stroke-width="0.6"/>
<path d="M98.1674 129.167L99.834 130.833M98.1673 130.833L99.8341 129.167" stroke="black" stroke-width="0.5" stroke-linecap="round" stroke-linejoin="round"/>
<circle cx="261" cy="106" r="2.2" fill="white" stroke="black" stroke-width="0.6"/>
<path d="M260.167 105.167L261.834 106.833M260.167 106.833L261.834 105.167" stroke="black" stroke-width="0.5" stroke-linecap="round" stroke-linejoin="round"/>
<circle cx="99" cy="106" r="2.2" fill="white" stroke="black" stroke-width="0.6"/>
<path d="M98.1674 105.167L99.834 106.833M98.1673 106.833L99.8341 105.167" stroke="black" stroke-width="0.5" stroke-linecap="round" stroke-linejoin="round"/>
<circle cx="261" cy="130" r="2.2" fill="white" stroke="black" stroke-width="0.6"/>
<path d="M260.167 129.167L261.834 130.833M260.167 130.833L261.834 129.167" stroke="black" stroke-width="0.5" stroke-linecap="round" stroke-linejoin="round"/>
</svg>
